<?xml version="1.0" standalone="no"?>
<!DOCTYPE svg PUBLIC "-//W3C//DTD SVG 20010904//EN"
 "http://www.w3.org/TR/2001/REC-SVG-20010904/DTD/svg10.dtd">
<svg version="1.0" xmlns="http://www.w3.org/2000/svg"
 width="512.000000pt" height="512.000000pt" viewBox="0 0 512.000000 512.000000"
 preserveAspectRatio="xMidYMid meet">
<metadata>
Created by potrace 1.14, written by Peter Selinger 2001-2017
</metadata>
<g transform="translate(0.000000,512.000000) scale(0.100000,-0.100000)"
fill="#000000" stroke="none">
<path d="M2069 5116 c-2 -2 -24 -6 -49 -9 -74 -10 -190 -46 -277 -87 -322
-150 -551 -456 -602 -800 -6 -37 -9 -300 -8 -610 l2 -545 27 -80 c15 -44 44
-109 65 -145 46 -79 180 -216 246 -250 26 -14 47 -27 47 -30 0 -3 -21 -16 -47
-30 -63 -33 -199 -170 -242 -243 -19 -33 -48 -98 -65 -145 l-31 -87 0 -555 c0
-644 1 -651 66 -822 72 -185 189 -342 350 -465 81 -63 243 -145 329 -169 147
-39 137 -39 685 -39 l530 0 99 27 c156 43 320 126 410 208 19 17 42 37 51 44
27 20 24 84 -4 108 -29 23 -76 23 -99 1 -117 -113 -303 -204 -477 -232 -78
-13 -952 -13 -1030 0 -188 31 -365 122 -497 256 -137 139 -211 278 -252 473
-18 85 -22 1059 -5 1141 32 151 118 278 249 363 59 39 80 44 80 22 0 -22 83
-102 132 -128 l43 -23 760 0 c749 0 761 0 805 21 47 22 100 68 136 119 l20 29
45 -26 c94 -55 191 -165 232 -263 44 -104 45 -127 46 -665 0 -597 -3 -624 -87
-813 -20 -46 -23 -64 -16 -85 13 -37 55 -59 91 -47 39 14 96 133 133 277 l29
113 -2 565 -2 565 -27 80 c-32 95 -85 185 -152 261 -49 56 -134 125 -181 146
-14 6 -25 14 -25 17 0 3 21 17 46 30 105 56 248 224 293 347 50 132 51 142 48
734 -2 305 -7 569 -11 585 -110 446 -392 737 -816 842 -54 13 -149 17 -576 20
-281 1 -513 1 -515 -1z m1029 -159 c12 -3 49 -13 81 -21 124 -32 283 -123 379
-217 100 -98 189 -232 227 -344 49 -142 48 -131 51 -700 3 -342 0 -557 -6
-585 -36 -157 -136 -299 -264 -374 l-49 -29 -21 29 c-39 56 -98 103 -152 124
-53 19 -74 20 -784 20 -707 0 -731 -1 -783 -20 -54 -20 -114 -69 -152 -124
l-21 -29 -49 29 c-77 44 -175 149 -212 225 -62 127 -63 138 -60 729 2 294 7
549 11 565 66 266 182 439 392 580 102 69 203 112 318 135 82 17 140 18 581
16 270 -1 500 -5 513 -9z m224 -2272 c32 -23 68 -90 68 -125 0 -44 -38 -105
-79 -128 l-39 -22 -712 0 -712 0 -39 22 c-41 23 -79 84 -79 128 0 42 38 105
77 128 l38 22 725 -3 c707 -2 726 -2 752 -22z"/>
<path d="M1787 4650 c-150 -47 -258 -174 -275 -324 -4 -34 -7 -268 -6 -521 1
-500 2 -514 60 -607 48 -77 147 -151 234 -175 42 -12 1425 -15 1488 -3 158 29
280 147 316 305 8 34 11 207 11 530 -1 438 -3 485 -20 535 -45 136 -144 229
-280 265 -48 12 -127 15 -416 15 -210 0 -368 -4 -383 -10 -53 -20 -59 -94 -11
-126 22 -14 72 -16 402 -18 365 -1 379 -2 418 -23 55 -29 94 -70 118 -123 20
-43 21 -65 21 -518 1 -404 -1 -480 -15 -521 -20 -64 -53 -103 -114 -138 l-50
-28 -725 0 -725 0 -41 22 c-52 28 -108 90 -125 139 -9 30 -13 153 -13 519 0
461 1 482 21 525 24 53 63 94 118 123 37 20 58 22 250 24 116 1 220 5 233 8
26 6 52 57 44 87 -2 10 -16 28 -30 39 -24 18 -39 20 -236 18 -174 -1 -221 -4
-269 -19z"/>
<path d="M1884 3984 c-25 -24 -26 -30 -22 -115 3 -82 5 -93 28 -111 30 -24 77
-18 103 13 13 17 17 40 17 106 0 76 -2 86 -25 108 -31 32 -69 32 -101 -1z"/>
<path d="M3135 3985 c-23 -22 -25 -32 -25 -110 0 -78 2 -88 25 -110 31 -32 69
-32 100 0 23 22 25 32 25 110 0 78 -2 88 -25 110 -13 14 -36 25 -50 25 -14 0
-37 -11 -50 -25z"/>
<path d="M2369 3888 c-66 -22 -62 -97 8 -152 119 -93 290 -84 389 21 31 33 35
42 29 72 -10 55 -54 79 -102 54 -15 -8 -30 -18 -33 -22 -10 -16 -69 -41 -96
-41 -30 0 -114 37 -114 50 0 15 -54 27 -81 18z"/>
<path d="M1656 1949 c-50 -14 -104 -59 -127 -106 -18 -37 -21 -63 -22 -152 0
-100 2 -112 26 -154 29 -50 63 -78 116 -95 42 -15 263 -16 314 -1 50 14 105
64 127 115 26 61 26 224 -1 278 -48 100 -93 120 -269 122 -74 0 -148 -3 -164
-7z m284 -159 c15 -15 19 -34 18 -96 -1 -110 -7 -114 -153 -114 -143 0 -150 5
-149 107 1 81 9 110 32 116 9 2 66 4 126 4 92 1 111 -2 126 -17z"/>
<path d="M2396 1945 c-49 -17 -93 -59 -117 -110 -14 -31 -19 -64 -19 -140 0
-112 16 -162 66 -209 53 -49 97 -58 251 -54 176 4 210 20 263 120 28 52 28
224 1 283 -22 47 -64 89 -106 106 -44 18 -290 20 -339 4z m295 -156 c15 -15
19 -34 19 -96 0 -109 -5 -113 -144 -113 -151 0 -156 4 -156 115 0 110 4 113
152 113 95 0 113 -3 129 -19z"/>
<path d="M3150 1946 c-19 -6 -53 -29 -76 -51 -48 -49 -64 -100 -64 -208 0
-124 39 -198 125 -238 32 -15 65 -19 169 -19 151 0 197 11 247 61 57 57 67
106 60 295 -2 44 -53 116 -103 144 -40 22 -54 25 -183 25 -77 1 -156 -3 -175
-9z m282 -144 c23 -3 35 -46 32 -120 -4 -96 -12 -102 -151 -102 -145 0 -150 4
-151 115 0 108 5 112 144 110 60 -1 116 -2 126 -3z"/>
<path d="M1647 1270 c-48 -15 -98 -61 -120 -109 -16 -37 -20 -66 -20 -147 1
-114 13 -153 62 -200 54 -53 90 -61 252 -60 137 2 146 3 185 28 78 50 104 112
103 243 -1 121 -35 191 -111 229 -43 22 -61 24 -185 24 -76 1 -151 -3 -166 -8z
m292 -159 c16 -16 19 -32 17 -100 -1 -49 -7 -86 -14 -93 -9 -9 -49 -13 -132
-13 -147 0 -151 3 -154 101 -2 68 6 102 28 116 6 4 62 8 124 8 97 0 115 -3
131 -19z"/>
<path d="M2370 1254 c-87 -49 -110 -98 -110 -238 0 -113 16 -161 66 -208 52
-47 86 -55 239 -53 150 1 181 9 229 53 51 48 66 95 66 211 0 93 -3 108 -26
152 -15 27 -44 60 -68 76 -40 27 -45 28 -196 30 -150 3 -157 2 -200 -23z m322
-141 c14 -13 18 -31 18 -95 0 -112 -5 -116 -152 -114 -147 2 -148 3 -148 109
0 114 3 117 148 117 93 0 119 -3 134 -17z"/>
<path d="M3145 1265 c-53 -19 -111 -82 -125 -136 -8 -27 -10 -83 -8 -142 5
-89 8 -102 34 -140 17 -23 50 -53 74 -67 41 -22 57 -25 170 -27 146 -2 187 5
240 42 63 44 84 99 83 222 0 89 -3 109 -25 150 -14 28 -42 60 -67 78 -42 30
-44 30 -189 33 -109 1 -157 -2 -187 -13z m291 -143 c22 -15 31 -49 28 -116 -3
-97 -8 -101 -149 -102 -76 -1 -121 3 -132 11 -12 9 -17 32 -19 94 -4 116 1
121 149 121 61 0 117 -4 123 -8z"/>
</g>
</svg>
